<svg xmlns="http://www.w3.org/2000/svg" viewBox="0 0 611 611">
  <defs>
    <style>
      .cls-1 {
        stroke: #fff;
        stroke-width: 20px;
      }

      .cls-1, .cls-3, .cls-4 {
        stroke-miterlimit: 10;
      }

      .cls-2, .cls-4 {
        fill: #fff;
      }

      .cls-3, .cls-4 {
        stroke: #000;
      }

      .cls-5 {
        fill: #eaeaea;
      }

      .cls-6 {
        fill: none;
      }
    </style>
  </defs>
  <g id="Layer_5" data-name="Layer 5">
    <circle class="cls-1" cx="305.5" cy="305.5" r="295.5"/>
  </g>
  <g id="Layer_2" data-name="Layer 2">
    <path class="cls-2" d="M870.12183,664.78219c26.64,36.50034,104.00137,119.52237,190.15209-.63531a54.04033,54.04033,0,0,0,9.974-27.78676c1.70672-24.79511,9.82778-82.30251,46.81-163.35038a54.18213,54.18213,0,0,0-4.48435-53.2778c-16.57907-23.957-57.7602-50.66853-161.58553-49.70671-25.66314.23774-52.17076,8.05064-75.33082,19.108-22.69416,10.83489-46.41808,28.20813-55.32054,55.22251,0,0-83.17155-10.47831-58.28557,60.90514,0,0,27.53242,58.26628,92.09384,84.89738a3.62243,3.62243,0,0,1,2.256,3.26685c.13306,6.31493.59176,24.07554,1.78081,39.11654A63.14889,63.14889,0,0,0,870.12183,664.78219Z" transform="translate(-657.5 -178.5)"/>
    <path class="cls-3" d="M1099.253,455.6087a24.96847,24.96847,0,0,0-1.696-23.50721c-13.21684-20.86636-54.10079-61.15675-168.50786-45.37646,0,0-74.11635,9.13027-89.57,53.65481a29.656,29.656,0,0,0,4.21851,27.34344c10.91995,14.77275,37.05672,38.1436,94.52,42.12183C938.21761,509.84511,1069.33976,522.78093,1099.253,455.6087Z" transform="translate(-657.5 -178.5)"/>
    <path class="cls-4" d="M1017.82859,397.43709s104.98334,45.382,8.40718,90.65067C1026.23577,488.08776,1141.2085,444.11254,1017.82859,397.43709Z" transform="translate(-657.5 -178.5)"/>
    <path class="cls-4" d="M925.77463,401.1327S812.478,429.948,890.41035,484.30424C890.41035,484.30424,830.815,435.18719,925.77463,401.1327Z" transform="translate(-657.5 -178.5)"/>
    <path class="cls-4" d="M934.28825,416.85016s-54.35621,20.95661-26.85066,57.63067C907.43759,474.48083,864.21459,435.84208,934.28825,416.85016Z" transform="translate(-657.5 -178.5)"/>
    <path class="cls-4" d="M1003.707,416.85016s73.34813,30.12512,9.82341,59.59535C1013.53043,476.44551,1094.08239,448.28507,1003.707,416.85016Z" transform="translate(-657.5 -178.5)"/>
    <path class="cls-5" d="M798.72518,484.30424s-23.57618-3.92936-16.37235,11.1332,39.29364,42.56811,64.17962,47.80727c0,0-6.54894-20.95661-10.47831-24.886S798.72518,484.30424,798.72518,484.30424Z" transform="translate(-657.5 -178.5)"/>
    <path d="M833.43457,500.67659s-23.57619-16.37235-34.70939-16.37235c0,0,8.51363,24.886,43.223,45.84259Z" transform="translate(-657.5 -178.5)"/>
    <path class="cls-6" d="M1059.70046,379.84864" transform="translate(-657.5 -178.5)"/>
    <path class="cls-2" d="M911.22869,234.81922s-21.76455,32.07408,0,57.27514,16.037,51.54762,0,61.85714c0,0,39.88007-24.13794,5.12445-63.37309a44.17158,44.17158,0,0,1-11.1162-32.05917A71.82353,71.82353,0,0,1,911.22869,234.81922Z" transform="translate(-657.5 -178.5)"/>
    <path class="cls-2" d="M970.02807,210s-21.76455,32.07407,0,57.27513,16.037,51.54762,0,61.85715c0,0,39.88007-24.13794,5.12445-63.3731A44.17158,44.17158,0,0,1,964.03632,233.7,71.82354,71.82354,0,0,1,970.02807,210Z" transform="translate(-657.5 -178.5)"/>
    <path class="cls-2" d="M1028.17622,235.20106s-21.76455,32.07407,0,57.27513,16.037,51.54762,0,61.85714c0,0,39.88007-24.13793,5.12445-63.37309a44.17158,44.17158,0,0,1-11.1162-32.05917A71.82354,71.82354,0,0,1,1028.17622,235.20106Z" transform="translate(-657.5 -178.5)"/>
  </g>
  <g id="Layer_4" data-name="Layer 4">
    <g>
      <path d="M885.32568,552a23.80922,23.80922,0,0,0,4.76026-.48047q2.35839-.479,4.75976-1,2.40015-.51855,4.79981-1a24.47313,24.47313,0,0,1,4.80029-.47949,12.2704,12.2704,0,0,1,2.3999.23926,6.42659,6.42659,0,0,1,2.16016.84082,4.48413,4.48413,0,0,1,1.52,1.55957,3.8429,3.8429,0,0,1,.3999,2.40039A2.6767,2.6767,0,0,1,910.0459,556a.38722.38722,0,0,1-.36035-.28027c-.08008-.18555-.15967-.39942-.23975-.63965a3.02369,3.02369,0,0,0-.35986-.71973,1.76432,1.76432,0,0,0-.8003-.60058,2.84844,2.84844,0,0,0-1.23974-.16016h-2.84033q-1.04078,0-2.15967.08008-1.12134.082-2.12012.16015a5.40072,5.40072,0,0,0-1.3999.24024,4.60911,4.60911,0,0,0-.72022,1q-.64086,1.00049-1.35986,2.20019-.72,1.19971-1.32031,2.23926a11.05723,11.05723,0,0,0-.67969,1.28027q-1.43994,2.32179-3.08008,5.16016-1.64062,2.84034-3.16015,5.87988a54.137,54.137,0,0,0-2.6001,6.08008,26.8,26.8,0,0,0-1.3999,5.59961,7.87678,7.87678,0,0,0-.08008,1.12012v1.12012L883.80566,586l-.96.08008q-2.40013,0-2.7998-1.36035a8.36317,8.36317,0,0,1-.08008-3.51953,24.42879,24.42879,0,0,1,1.71973-6.44043,66.29376,66.29376,0,0,1,3.32031-7q1.91967-3.51857,4.04-6.79981,2.11816-3.27978,3.87988-5.91992h-.64014a13.43933,13.43933,0,0,0-2.27978.20019,13.36666,13.36666,0,0,1-2.28027.2002A5.78057,5.78057,0,0,1,883.8457,554.04a4.144,4.144,0,0,1-1.3999-3.79981,6.474,6.474,0,0,1,1.27979,1.11915A2.00765,2.00765,0,0,0,885.32568,552Zm-4.48,31.44043q.07911-.96094.2002-1.96a16.54077,16.54077,0,0,0,.11963-1.96094c-.10742.32031-.19971.64063-.27979.96094q-.12012.479-.28027.96A7.066,7.066,0,0,0,880.8457,583.44043Zm.96,0a3.78484,3.78484,0,0,0,.31983-1.68066,7.15234,7.15234,0,0,0,.20019-1.2793q.03955-.64014.04-.96094a6.08092,6.08092,0,0,0-.31982,1.12012,6.35986,6.35986,0,0,1-.24024.96Zm8.72022-21.36035q.23951-.3999.91992-1.32031a6.69611,6.69611,0,0,0,.75977-1.16016c-.05371,0-.15967.10742-.31983.32031q-.24023.3208-.52.75977c-.1875.29394-.35986.57422-.52.83984C890.68555,561.78711,890.57813,561.97363,890.52588,562.08008Zm1.91992-2.87988q.07838-.07911.6001-.83985.51929-.76025,1.07959-1.56055.55884-.79833,1-1.47949.43872-.67968.36035-.68066-.08056,0-.52.64062-.44091.64014-.96,1.39942-.52149.76171-1,1.52051A6.259,6.259,0,0,0,892.4458,559.2002Zm.3999-2.48047q.24024-.07764.68018-.83985.43872-.75879.59961-1-.23951.08056-.71973.79981A4.10682,4.10682,0,0,0,892.8457,556.71973Zm2.72022.7998a3.50058,3.50058,0,0,0,.87988-1.35937A5.3643,5.3643,0,0,0,895.56592,557.51953Z" transform="translate(-657.5 -178.5)"/>
      <path d="M899.0835,583.83984a10.741,10.741,0,0,1,1.04-3.75976q1.11913-2.79931,2.91992-6.48047,1.80029-3.67822,4-7.87988,2.19947-4.19971,4.28027-7.96,2.07935-3.75879,3.79981-6.71973,1.719-2.959,2.52-4.24024a31.32893,31.32893,0,0,1,2.48-3.28027,24.625,24.625,0,0,1,3.16015-3.07959,17.80025,17.80025,0,0,1,3.67969-2.31982,9.41208,9.41208,0,0,1,4.04-.91992,6.31525,6.31525,0,0,1,3.35986.87988,3.53794,3.53794,0,0,1,1.6001,2.96,10.8226,10.8226,0,0,1-1.35986,5.87988,19.38038,19.38038,0,0,1-3.91993,4.96,30.54823,30.54823,0,0,1-5.28027,3.87989,43.04179,43.04179,0,0,1-5.43994,2.7207,10.75309,10.75309,0,0,1-1.83984.63965q-.96021.24022-1.91993.55957-.561.16113-1.84033,2.32031-1.28027,2.16064-2.67969,4.7998-1.40039,2.63965-2.60009,5.08008-1.19971,2.44189-1.6001,3.24024a42.69173,42.69173,0,0,0,3.28027-3.32032,42.58389,42.58389,0,0,1,3.27979-3.31933q.96019-.7998,2.91992-2.40039,1.95922-1.59961,4.16016-3.2002a48.47592,48.47592,0,0,1,4.27978-2.7998,7.25239,7.25239,0,0,1,3.2002-1.2002,2.46214,2.46214,0,0,1,1.35986.36035,1.541,1.541,0,0,1,.64014,1.24024,4.42429,4.42429,0,0,1-.43995,1.71973,16.91088,16.91088,0,0,1-1.08007,2.04q-.64087,1.04-1.31983,1.96-.68115.91992-1.08008,1.47949a31.21447,31.21447,0,0,0-3.16015,5.52051,46.33368,46.33368,0,0,0-2.19971,6q-.24024.7998-.52,1.75976a4.91807,4.91807,0,0,0-.20019,1.83984,1.25848,1.25848,0,0,0,.27978.91993,1.615,1.615,0,0,0,.64014.40039,7.073,7.073,0,0,0,.72021.20019,1.20423,1.20423,0,0,1,.6001.31934,1.17175,1.17175,0,0,1-.88037,1.08008,4.13257,4.13257,0,0,1-1.52.36035,3.73342,3.73342,0,0,1-2.83984-1.24024A4.75259,4.75259,0,0,1,916.28369,582a12.53683,12.53683,0,0,1,.43994-4.32031,29.50226,29.50226,0,0,1,1.56006-4.2793,34.27421,34.27421,0,0,1,2.15967-4.04q1.20043-1.92041,2.32031-3.52051.39918-.5581.79981-1.12011a5.17525,5.17525,0,0,0,.64013-1.2002,3.86674,3.86674,0,0,0-.87988.60059c-.42773.34765-.72021.57324-.88037.67968q-2.56128,2.001-4.71973,3.87989-2.15991,1.88085-4.20019,3.80078-2.03981,1.91895-4,4.0791-1.96143,2.16065-4.04,4.64063-.80053.95946-1.79981,2.35937a11.03409,11.03409,0,0,1-1.87988,2.12012h-.24023a1.5536,1.5536,0,0,1-.64014-.19922,6.22793,6.22793,0,0,1-.7998-.48047,5.46009,5.46009,0,0,1-.72022-.59961A.88123.88123,0,0,1,899.0835,583.83984Zm.96-.7998a1.98732,1.98732,0,0,0,.24023-.87988v-.08008q-.15966,0-.20019.40039Q900.04395,582.88037,900.04346,583.04Zm.56006-1.44043a4.10969,4.10969,0,0,0,.35986-.75977A2.49051,2.49051,0,0,0,901.16357,580c-.10742.05371-.21386.30762-.31982.75977A5.41134,5.41134,0,0,1,900.60352,581.59961Zm.7998-2.15918q.79908-1.59961,1.48-3.12012.679-1.519,1.40039-3.12011Zm8.08008-14q-2.15991,3.91992-4.08008,7.91992-1.91967,4.00048-3.75977,8.15918l.08008.08008c.106,0,.26612-.25195.48-.75977A5.93427,5.93427,0,0,0,902.52344,580q1.5996-3.75879,3.48-7.28027,1.87866-3.51857,3.56006-7.2002Zm-4.63965,6.63965a.22975.22975,0,0,0-.16016.08008v.16015l.16016-.08008Zm.96-1.67969a.23736.23736,0,0,0-.08008-.16016c-.05371,0-.08008.08008-.08008.24024v.0791l.16016-.0791Zm1.43994-2.88086a4.48206,4.48206,0,0,1,.35987-.59961,3.28961,3.28961,0,0,0,.35986-.67969,5.39858,5.39858,0,0,0,.3999-.96,10.396,10.396,0,0,1-.63965,1.08008,4.14688,4.14688,0,0,0-.56006,1.15918c0,.1084-.02734.16016-.08007.16016Zm1.91992-3.75976q.39918-.71925.83985-1.39942a8.64976,8.64976,0,0,0,.76025-1.48047Zm1.27979,4a.54336.54336,0,0,0,.16016-.39942.54175.54175,0,0,1,.16015-.40039.65667.65667,0,0,0-.24023.40039Zm.32031-4.79981c.05225-.05273.27979-.40039.67969-1.04q.60059-.95948,1.43994-2.40039.84009-1.43994,1.80029-3.19922t1.87989-3.36035q.91845-1.59961,1.64013-2.87988.72-1.27881,1.04-1.75977a66.09832,66.09832,0,0,0-4.48,7.12012Q912.7627,559.12011,910.76367,562.96Zm.15967,3.75977c.10645-.10645.16016-.18555.16016-.23926-.05371,0-.13379.05371-.23975.15918v.16015Zm.08008-6.39942c.05273,0,.16015-.12011.32031-.36035q.23951-.36034.52-.83984c.186-.32032.34619-.626.48-.91992a2.391,2.391,0,0,1,.27979-.52051,7.29839,7.29839,0,0,1,.48-.96q.39917-.71925.87988-1.55957.48046-.84083.84033-1.51953a2.935,2.935,0,0,0,.35986-.84083q-.32079.48048-.96,1.60059-.6416,1.12061-1.32031,2.2793-.68041,1.16161-1.23975,2.20019A6.508,6.508,0,0,0,911.00342,560.32031Zm1.12012,4.31934-.08008-.08008q-.08057,0-.23975.36035a1.74184,1.74184,0,0,0-.16016.44043Zm2.72021-5.2793a4.0703,4.0703,0,0,0,.75977-1.20019,10.37232,10.37232,0,0,0,.52-1.36036q-.32081.64161-.6001,1.28028A10.03094,10.03094,0,0,1,914.84375,559.36035Zm.48-6.71972c.106-.10743.22607-.24024.35986-.4004a.48833.48833,0,0,0,.12012-.48046c-.16016,0-.26758.10742-.32031.32031a1.02714,1.02714,0,0,1-.23975.48047Zm.63965-1.041a.95257.95257,0,0,1,.16016-.24023.325.325,0,0,0,.08007-.23926.90877.90877,0,0,1-.16015.23926A.329.329,0,0,0,915.96338,551.59961Zm18.16016-9.75977a5.0189,5.0189,0,0,0-.2002-1.15966q-.20069-.75953-.75977-.76026a6.043,6.043,0,0,0-2.83984.91992,20.44944,20.44944,0,0,0-3.20019,2.24024q-1.56006,1.31982-2.91993,2.67969a16.23805,16.23805,0,0,0-2,2.32031q-.24023.40137-1.20019,1.87988-.96021,1.481-2,3.16016-1.04077,1.68016-1.83985,3.08008a6.78774,6.78774,0,0,0-.80029,1.63964h.08008a2.513,2.513,0,0,0,.72021-.16015q.47974-.15821,1.08008-.39942.59985-.24022,1.08008-.48047a6.15091,6.15091,0,0,1,.71973-.31933,46.90115,46.90115,0,0,0,4.3999-2.36035,32.29254,32.29254,0,0,0,4.68018-3.39942,20.70035,20.70035,0,0,0,3.68017-4.16015A7.51425,7.51425,0,0,0,934.12354,541.83984Zm-17.68018,8.96a.37154.37154,0,0,0,.20019-.28027,1.42664,1.42664,0,0,1,.12012-.35937c-.10742,0-.17383.08007-.20019.24023A1.45617,1.45617,0,0,1,916.44336,550.7998Zm.80029,29.83985a2.99991,2.99991,0,0,0,.19971-.71973,2.92829,2.92829,0,0,1,.20019-.71972q.39918-1.59962.87989-3.04.48046-1.43994.96-3.04-.3208.6416-.71973,1.63965-.40137,1.00194-.76025,2.08007-.35962,1.0796-.6001,2.12012a8.07492,8.07492,0,0,0-.23975,1.75977v.08007Zm1.19971-.55957q.15966,0,.36035-.75977a5.89979,5.89979,0,0,0,.19971-.91992,12.76657,12.76657,0,0,1,.43994-1.24023q.36035-.91846.72021-1.91993.35962-.999.64014-1.7998a7.32708,7.32708,0,0,0,.27979-.88086,2.57008,2.57008,0,0,0-.75977,1.2002q-.44091,1.0415-.84033,2.32031-.40137,1.28027-.71973,2.43945A7.38991,7.38991,0,0,0,918.44336,580.08008ZM920.36328,580a5.471,5.471,0,0,1,.2002-.71973q.19848-.64012.48-1.44043.27978-.79833.48-1.47949a6.47081,6.47081,0,0,0,.20019-.76074q-.08056.24024-.32031.88086-.23951.64014-.48,1.35937-.23951.7207-.3999,1.36036A4.758,4.758,0,0,0,920.36328,580Zm7.44043-18.16016-.08008-.08007c-.10742,0-.1875.06738-.24023.20019-.05371.13379-.10742.25391-.15967.36035v.16016c.05225,0,.146-.09277.27979-.28027A.9997.9997,0,0,0,927.80371,561.83984Z" transform="translate(-657.5 -178.5)"/>
      <path d="M941.80273,559.04a1.41909,1.41909,0,0,1,.64014-.16016h.72022a6.94116,6.94116,0,0,1,2.3999.44043,5.6713,5.6713,0,0,1,2.08008,1.31934,5.15443,5.15443,0,0,1,1.27978,3.52051,9.91122,9.91122,0,0,1-2.16015,5.04,33.40015,33.40015,0,0,1-2.48,3.16015,28.50525,28.50525,0,0,1-2.15966,2.2793,18.60743,18.60743,0,0,1-1.88037,1.20019,25.56747,25.56747,0,0,1-2.52,1.2002,11.59446,11.59446,0,0,1-1.23975.40039,7.15594,7.15594,0,0,1-1.31982.0791,11.50029,11.50029,0,0,1-1.2002-.03906,2.9081,2.9081,0,0,1-.72021-.2002,1.93379,1.93379,0,0,0-.63965-.24023,8.66033,8.66033,0,0,1-.56006,1.44043,4.59328,4.59328,0,0,0-.43994,1.31933q-.04174.44092-.12012,1.32032a4.86727,4.86727,0,0,0,.23975,2.12011,2.31991,2.31991,0,0,0,1.04,1.16016,4.27473,4.27473,0,0,0,1.72021.23926,7.28294,7.28294,0,0,0,2.04-.23926,11.43042,11.43042,0,0,0,2.27978-1,26.66226,26.66226,0,0,0,2.43995-1.48047,11.28347,11.28347,0,0,1,2.20019-1.32031,1.06835,1.06835,0,0,1,1.08008.20019q.39916.48048-.64014,1.44043a13.227,13.227,0,0,1-3.56006,2.24024,19.37488,19.37488,0,0,1-4.35986,1.43945,11.70519,11.70519,0,0,1-2.31982.12012,5.99163,5.99163,0,0,1-2.16016-.36035,8.38872,8.38872,0,0,1-2.56006-1.43946,3.183,3.183,0,0,1-1.20019-1.75976,9.88771,9.88771,0,0,1-.48-3.36035,13.49318,13.49318,0,0,1,.80029-3.60059q.16113-.479.31982-.83984a1.77916,1.77916,0,0,0,.16016-.43946,3.05449,3.05449,0,0,1,.23975-.60058q.24023-.51855.60009-1.15918.36036-.64014.8003-1.36035.43872-.72071.75976-1.2002.55884-.87891,1.24024-1.7998.67821-.91847,1.31982-1.79981a4.65707,4.65707,0,0,0,.3999-.48047q.24024-.31786.56006-.71972a13.32626,13.32626,0,0,1,1.04-1.12012q.79835-.79835,1.68018-1.67969A32.59607,32.59607,0,0,1,939.80273,560,5.31166,5.31166,0,0,1,941.80273,559.04Zm-3.04,3.20019q.72-.96093-1.52,1.2793a38.14357,38.14357,0,0,0-6.55957,8.56055,14.57563,14.57563,0,0,0-1.4004,2.71972q-.52074,1.36085-.91992,2.71973-.15893.80127-.27978,1.56055c-.08008.50781-.09278.707-.04.59961a.8365.8365,0,0,0,.15967-.31934.87956.87956,0,0,0,.08007-.40039,1.53353,1.53353,0,0,1,.08008-.47949,23.70086,23.70086,0,0,1,3.16016-7.32031,42.8547,42.8547,0,0,1,5.87988-7.48047q.39918-.479.79981-.87989C938.46924,562.53418,938.65527,562.34766,938.7627,562.24023Zm.56005,1.2793q1.43994-1.51758,1.08008-1.23926-.35961.28125-2.04,1.87989a36.87535,36.87535,0,0,0-5.48,6.51953,25.92243,25.92243,0,0,0-3.23974,6.68066,4.94211,4.94211,0,0,0-.32032,1.15918q.07911-.11865.72022-1.55957a19.30165,19.30165,0,0,1,1.15967-2.71973q.60059-1.11914,1.48047-2.56054a40.00981,40.00981,0,0,1,2.96-4.16016A43.07573,43.07573,0,0,1,939.32275,563.51953Zm-7.60009,14a4.86552,4.86552,0,0,0,.24023-1.03906c-.05371-.05274-.10742-.0127-.16016.11914a7.61523,7.61523,0,0,0-.23974.91992q-.40137.88184-.32031.88086Q931.32177,578.40039,931.72266,577.51953Zm8.56-12.39941c0-.05274-.04-.04-.11962.04-.08008.08007-.334.30761-.76026.67968a36.18544,36.18544,0,0,0-6.3999,8.48047q-.64159,1.19972-.87988,1.63965-.24024.44092,0,.36035a3.25661,3.25661,0,0,0,.31982-.52051c.16016-.292.37256-.65234.64014-1.08007q1.35938-2.39941,2.71972-4.35938a32.50181,32.50181,0,0,1,3.28028-3.96q.47973-.48047.83984-.84082Q940.28321,565.20068,940.28271,565.12012Zm4.32032-2.48047c0-.21192-.02783-.31934-.08008-.31934a3.11552,3.11552,0,0,0-.68018.51953q-.59985.52149-1.3999,1.28028-.80053.76171-1.64014,1.59961-.84008.84081-1.48,1.48047-1.52051,1.68016-3.1997,3.91992a29.50227,29.50227,0,0,0-2.48,3.75976l-.40039.96h.56005q.24024-.07909.72022-.24023a7.14567,7.14567,0,0,0,.96-.39941,5.46131,5.46131,0,0,0,.68018-.32032,3.74809,3.74809,0,0,0,.55957-.39941q.27978-.24024.72021-.64063.43872-.39843,1.08008-1.04.96021-.87889,1.6001-1.55957a14.07293,14.07293,0,0,0,1.15966-1.40039,17.48932,17.48932,0,0,0,1-1.55957q.48048-.84081,1.12012-2.12011a3.99337,3.99337,0,0,0,.35987-.79981q.19921-.55958.40039-1.08008a8.8687,8.8687,0,0,0,.31982-1A3.35748,3.35748,0,0,0,944.603,562.63965Zm.3999,2.64062c.16016-.5332.2124-.8125.16016-.83984-.0542-.02637-.1875.19922-.40039.67969q-.16115.32079-.43995,1a8.93512,8.93512,0,0,1-.67968,1.32031l-.56006,1.11914-.24024.48047c0-.05274.16016-.24024.48-.55957q.39991-.64014.91993-1.60059A13.39978,13.39978,0,0,0,945.00293,565.28027Zm.7998.55957c-.05371,0-.14746.12012-.27978.36036q-.20069.36035-.52.91992a8.37947,8.37947,0,0,1-.56006,1.08008c-.21387.34765-.37353.5996-.48.75976l-.31982.55957.31982-.31933a6.709,6.709,0,0,0,.91992-1.28028,13.36934,13.36934,0,0,0,.76026-1.43945Zm-.56005-1.75976c.10644-.10645.10644-.16016,0-.16016,0-.05273-.01368-.0664-.04-.04a.31507.31507,0,0,0-.03955.2002C945.21533,564.13379,945.24268,564.13379,945.24268,564.08008Zm1.60009,3.83984a.71275.71275,0,0,0,.08008-.20019.714.714,0,0,1,.08008-.2002.61722.61722,0,0,1,.08008-.23926c0-.05273-.05371,0-.16016.16016a3.42906,3.42906,0,0,0-.31982.63965q-.40137.7998-.28028.71972A3.60487,3.60487,0,0,0,946.84277,567.91992Z" transform="translate(-657.5 -178.5)"/>
      <path d="M988.3623,549.43945a2.47423,2.47423,0,0,1,.96-.31933,4.37466,4.37466,0,0,1,.48046.04c.21192.02734.45215.06738.71875.11914a3.93648,3.93648,0,0,1,1.64063.64062,7.388,7.388,0,0,1,1.40039,1.35938,7.09991,7.09991,0,0,1,1.51953,5.12109c-.05371.37305-.10742.74707-.16015,1.11914a11.743,11.743,0,0,1-.24024,1.2002,13.11014,13.11014,0,0,1-1.19922,3.12011,9.73911,9.73911,0,0,1-2.08008,2.48047,8.592,8.592,0,0,1-1.56054,1.23926,3.63548,3.63548,0,0,1-1.959.52051,2.47975,2.47975,0,0,1-1.36133-.48047.87387.87387,0,0,1-.31933-.55957,3.11764,3.11764,0,0,1,.63965-1.12012,9.82532,9.82532,0,0,0,1.44043-2.47949,34.78143,34.78143,0,0,0,1.20019-3.36035q.1582-.7207.32031-1.83985a14.46522,14.46522,0,0,0,.15918-2q.15967-1.35937-.0791-1.36035a3.42825,3.42825,0,0,0-1.36133.84082q-1.04.83935-2.35937,2.11914-1.31982,1.28028-2.67969,2.75977-1.3623,1.48242-2.40039,2.76074a43.4783,43.4783,0,0,0-5.51953,8.71973,21.55055,21.55055,0,0,0-2.32031,8c0,.42773.02636.91992.08008,1.47949a6.85381,6.85381,0,0,0,.35937,1.64063,6.01669,6.01669,0,0,0,.7207,1.43945,2.22068,2.22068,0,0,0,1.16016.87988,2.75136,2.75136,0,0,0,.87988.16016,6.6386,6.6386,0,0,0,2.4795-.59961,19.17148,19.17148,0,0,0,3.04-1.63965,17.74065,17.74065,0,0,0,2.16016-1.64063q1.03857-.91845,2.55957-2.43945a34.95314,34.95314,0,0,0,2.36035-2.7207q.91846-1.19971,2.12012-3.04.39843-.63867.7207-1.08008a5.6003,5.6003,0,0,1,.47949-.59961,1.41879,1.41879,0,0,1,.63965-.16015,2.38375,2.38375,0,0,1,1,.24023,1.67,1.67,0,0,1,.75977.63965v.64062a7.75439,7.75439,0,0,1-1.19922,3.43946q-.48046.7207-.88086,1.24023-.40137.52149-1.51953,1.96a22.55546,22.55546,0,0,1-3.79981,3.83985,22.7895,22.7895,0,0,1-4.91992,2.7998,15.788,15.788,0,0,1-6.08008,1.52051,6.23633,6.23633,0,0,1-6-3.67969,8.22638,8.22638,0,0,1-.7998-2.7207,14.72909,14.72909,0,0,1-.08008-3.43946,7.8321,7.8321,0,0,1,.03906-.7998c.02735-.2666.06641-.5332.1211-.80078a10.26111,10.26111,0,0,1,.43945-1.96q.36036-1.15869.80078-2.35938.438-1.20117.91992-2.36035a21.51976,21.51976,0,0,1,.959-2.04,19.9255,19.9255,0,0,1,1.041-1.7998q.63869-.999,1.2793-2.04.63867-1.03857,1.32031-1.96.67823-.91847,1.24024-1.56055a56.2078,56.2078,0,0,1,5.47949-5.63965A23.92385,23.92385,0,0,1,988.3623,549.43945Zm-10.96,10.96094c.16016-.2666.293-.48047.40039-.64062a2.52766,2.52766,0,0,1,.31934-.39942,3.96543,3.96543,0,0,0,.24023-.40039l-.16015.16016a.49746.49746,0,0,0-.12012.20019.79571.79571,0,0,1-.19922.2793q-.48046.561-1.16015,1.48047-.68117.91992-1.36036,1.96-.68115,1.04-1.28027,2.08008a19.39129,19.39129,0,0,0-.91992,1.75976q-.6416,1.36085-1.24023,2.91992-.6006,1.56006-1,2.68067c-.05372.2666-.11915.55957-.19922.87988a4.34,4.34,0,0,0-.1211.55957c.10742,0,.293-.47949.56055-1.43945a35.39109,35.39109,0,0,1,2.51953-6.08008A53.50593,53.50593,0,0,1,977.40234,560.40039Zm6.48047-5.60059a1.7291,1.7291,0,0,0,.31934-.39941c-.05371,0-.24024.17383-.55957.51953a11.80677,11.80677,0,0,1-1.28028,1.16016,47.86422,47.86422,0,0,0-5.63964,6.67969,33.85637,33.85637,0,0,0-3.72071,7.08007q-.7998,1.84131-.63965,1.83985c-.05371,0,.13184-.31934.55958-.96a38.38371,38.38371,0,0,1,2.75976-5.63965,44.74362,44.74362,0,0,1,3.64063-5.16016,10.83137,10.83137,0,0,0,.7998-1.04,7.57882,7.57882,0,0,1,.71973-.91992q.3999-.438.91992-.96.52-.52,1.24023-1.32031Zm-7.20117,11.52051.32031-.48047a.23157.23157,0,0,1-.08007.16016.6293.6293,0,0,1-.16016.12012.43877.43877,0,0,0-.16016.20019,1.38789,1.38789,0,0,0-.15918.39942.23118.23118,0,0,0-.08008.16015C976.46875,566.87988,976.57422,566.69336,976.68164,566.32031Zm1.91992-2.96a1.71326,1.71326,0,0,0,.32032-.40039.93347.93347,0,0,0,.16015-.24023l-.56055.56054a4.505,4.505,0,0,0-.43945.67969c-.02734.08008-.01367.12012.04.12012.05273,0,.10645-.05274.16016-.16016a.52248.52248,0,0,0,.12011-.24023A.69623.69623,0,0,1,978.60156,563.36035Zm2-6.7207c0-.10547-.05273-.0918-.15918.04-.1084.13379-.13379.20019-.08008.20019l.15918-.16015A.07172.07172,0,0,1,980.60156,556.63965ZM991.002,556c0-.21289-.02734-.32031-.08007-.32031a.14143.14143,0,0,0-.16016.16015,5.02127,5.02127,0,0,1-.08008.64063q-.0791.479-.19922,1.0791-.12012.60059-.28027,1.2002c-.10742.40039-.1875.708-.24024.91992a3.2406,3.2406,0,0,0-.15918.56054.69643.69643,0,0,0-.08007.31934c.05175.05371.1455-.10547.27929-.47949q.19923-.55957.40039-1.32031.19923-.75879.40039-1.55957A5.5337,5.5337,0,0,0,991.002,556Zm.80078,2.71973a1.354,1.354,0,0,0,.15918-.59961v-.44043c-.05371-.16016-.0791-.22559-.0791-.19922a2.043,2.043,0,0,1-.16015.35937q-.24024.88184-.52051,1.75977-.28125.88184-.2002.96c.10645.05371.24024-.13184.40039-.55957A11.78861,11.78861,0,0,0,991.80273,558.71973Zm1.75977.7998a.32293.32293,0,0,0,.08008-.23926v-.64062c-.10742,0-.16016.20019-.16016.60058v.59961a.16217.16217,0,0,1,.03906-.12011A.30691.30691,0,0,0,993.5625,559.51953Z" transform="translate(-657.5 -178.5)"/>
      <path d="M997.24219,569.793a22.14632,22.14632,0,0,1,2.12011-3.44922,27.20171,27.20171,0,0,1,3.2002-3.65137,19.54576,19.54576,0,0,1,3.83984-2.88867,7.98317,7.98317,0,0,1,3.96-1.16406,4.64565,4.64565,0,0,1,2.83985.84082,8.06676,8.06676,0,0,1,2.52051,3l.16015-.08008a.6266.6266,0,0,1,.08008-.40039l.31934-1.2002a.77866.77866,0,0,0,.16015-.55957,6.67832,6.67832,0,0,0,.23926-.91992.45926.45926,0,0,1,.48047-.44043,3.33419,3.33419,0,0,1,1.83984.64258,2.36674,2.36674,0,0,1,1.1211,1.52344,6.37059,6.37059,0,0,1-.20117,1.9668,17.92043,17.92043,0,0,1-.87891,2.72851q-.60059,1.48536-1.36133,3.16895-.76026,1.686-1.55859,3.29-.80274,1.686-1.60059,3.45019-.80127,1.76514-1.39941,3.36914-.60059,1.60546-.96094,2.96875a5.6321,5.6321,0,0,0-.19922,2.32715c-.10742.42871.10547.6416.63965.6416a1.71159,1.71159,0,0,0,.96-.32031,2.72822,2.72822,0,0,1,.56055-.28027,1.51781,1.51781,0,0,1,.47949-.1211.07022.07022,0,0,0,.0791.08008c.05274,0,.08008.01367.08008.04,0,.02734.02734.03906.08008.03906a1.77841,1.77841,0,0,1-1.08008,1.084,3.85638,3.85638,0,0,1-1.63867.4414,7.70368,7.70368,0,0,1-2.80078-.55957,2.699,2.699,0,0,1-1.75977-2.08008,8.63547,8.63547,0,0,1,.16016-2.32031q.24022-1.1997.55957-3.59961-.561.64014-1.87989,2.04-1.31982,1.40038-2.83984,2.83984-1.52051,1.44-2.88086,2.55957a4.00057,4.00057,0,0,1-2,1.12012,4.109,4.109,0,0,1-3.19922-1.32324,6.17993,6.17993,0,0,1-1.51953-3.1709,10.1088,10.1088,0,0,1,.08008-2.80664,19.89973,19.89973,0,0,1,.75976-3.209q.51857-1.60548,1.16016-3.08887A19.76865,19.76865,0,0,1,997.24219,569.793Zm-2.32031,12.7666c.05273-.05176.0664-.23926.041-.55957-.02734-.32031-.041-.50586-.041-.55957a5.95662,5.95662,0,0,1,.12109-1.80078,4.58873,4.58873,0,0,0,.03906-1.79981l-.08008-.08007c-.05273,0-.08007.06738-.08007.20019v.28027c-.10547.4795-.19922.98731-.2793,1.51954a5.14348,5.14348,0,0,0,.03906,1.68066A2.81345,2.81345,0,0,0,994.92188,582.55957Zm.96093-.23926a1.98953,1.98953,0,0,0,.16016-.7207q.07764-.63867.15918-1.43945.07909-.79835.12012-1.48047.03954-.67823.04-.83985-.24023.96094-.47949,1.96a5.22826,5.22826,0,0,0-.08008,2.04Zm1.83985.31934-.08008-.71973v.87988l-.08008.08008Zm15.83984-19.19922A3.45956,3.45956,0,0,0,1013.12305,562a1.41308,1.41308,0,0,0-1.32032-.87988,3.986,3.986,0,0,0-2.5205,1.28027,22.01326,22.01326,0,0,0-2.87989,3.31934,38.47491,38.47491,0,0,0-2.7998,4.5205q-1.31982,2.48-2.32031,4.91993a32.61305,32.61305,0,0,0-1.52051,4.55957,8.39222,8.39222,0,0,0-.2793,3.40039q.07911.40137,1.19922-.56055a33.08151,33.08151,0,0,0,2.76074-2.75977q1.63917-1.80029,3.44043-4.16015,1.79883-2.35841,3.35938-4.67969a34.67584,34.67584,0,0,0,2.51953-4.32031A6.06167,6.06167,0,0,0,1013.5625,563.44043Zm-13.28027,3.91992q.15966,0,.47949-.36035.31934-.36035.24023-.44043a10.30715,10.30715,0,0,1,1.28028-1.35937,6.03111,6.03111,0,0,0,1.12011-1.28028v-.16015a.48362.48362,0,0,0-.24023.12011c-.10742.08008-.16016.14746-.16016.2002-.42773.32031-.83984.65332-1.24023,1a4.24815,4.24815,0,0,0-1,1.32031c-.05274.10742-.11914.23926-.19922.39941Zm1.28027.39942c.05273,0,.22656-.14649.51953-.43946s.62695-.61328,1-.96.707-.68066,1-1a3.03834,3.03834,0,0,1,.59961-.56055q-.7998.561-1.63867,1.16016a5.79606,5.79606,0,0,0-1.40039,1.40039Zm1.2793,1.44043.32031-.56055-.48047.64062v.08008Zm5.5205,14.39941a6.07409,6.07409,0,0,0,.08008-1.31934V580.7998l-.31933,2.32032Zm1.04-.08008c.10645,0,.17188-.0918.2002-.2793.02637-.18652.01269-.30664-.04-.36035V582c-.10742,0-.16016.24023-.16016.71973Zm1.91993.16016v.16015l.16015.16016Zm4.56054-19.91992q.15821,0,.35938-.4795a8.95888,8.95888,0,0,0,.36035-1.08007A9.48963,9.48963,0,0,0,1016.8418,561a7.621,7.621,0,0,0,.08008-.83984c-.10743,0-.17383.09375-.19922.28027a3.37452,3.37452,0,0,0-.041.35937,12.75157,12.75157,0,0,1-.39941,1.52051A14.38107,14.38107,0,0,0,1015.88281,563.75977Zm.47949,1.44043a16.66528,16.66528,0,0,1,.87989-1.68067,4.1448,4.1448,0,0,0,.56054-1.83984h-.16015a11.67653,11.67653,0,0,1-.64063,1.76074A11.59276,11.59276,0,0,0,1016.3623,565.2002Zm1.52051,1.12011q.15821-.31933.43946-.83984a11.02593,11.02593,0,0,0,.51953-1.12012,12.17379,12.17379,0,0,0,.40039-1.16015,3.43723,3.43723,0,0,0,.16015-.87989h-.08007l-.24024.55957c-.21289.58789-.41406,1.16016-.59961,1.71973Q1018.20117,565.44044,1017.88281,566.32031Z" transform="translate(-657.5 -178.5)"/>
      <path d="M1020.041,566.40039q0-.31934.80078-.84082a12.71829,12.71829,0,0,1,1.7998-.96q1.00048-.438,1.96-.79981c.64063-.24023,1.09278-.4121,1.36035-.51953a2.314,2.314,0,0,0,2.15918-1.91992.46059.46059,0,0,1,.16016-.32031.2316.2316,0,0,0,.08008-.16016.33.33,0,0,1,.08008-.24023q.64013-1.59815,1.83984-3.96,1.20117-2.35841,2.80078-5,1.59961-2.63966,3.43945-5.2793a41.21249,41.21249,0,0,1,3.80079-4.7207,23.44881,23.44881,0,0,1,3.91992-3.3999,6.72061,6.72061,0,0,1,3.71875-1.31983,5.58464,5.58464,0,0,1,3.707,1.31983,4.78,4.78,0,0,1,1.57422,3.88037,11.48282,11.48282,0,0,1-.58985,3.08007,25.53415,25.53415,0,0,1-1.53515,3.87989,17.26421,17.26421,0,0,1-2.12891,3.36035,3.24034,3.24034,0,0,1-2.38672,1.43945,1.89134,1.89134,0,0,1-.80078-.24023,3.954,3.954,0,0,1-.8789-.59961,8.956,8.956,0,0,1-.72071-.7207,1.057,1.057,0,0,1-.32031-.67969,4.34394,4.34394,0,0,1,.56055-1.59961q.55956-1.11915,1.28125-2.40039,1.0371-1.83984,1.959-3.87989a9.44462,9.44462,0,0,0,.91992-3.87988,7.16827,7.16827,0,0,0-2.40039,1.72071,38.55544,38.55544,0,0,0-3.08008,3.43945q-1.64062,2.03905-3.27929,4.48047-1.64062,2.44042-3.041,4.75976-1.40039,2.32032-2.35937,4.31934a15.31281,15.31281,0,0,0-1.19922,3.12012,26.72069,26.72069,0,0,1,4.40039.36035,6.79665,6.79665,0,0,1,3.75976,1.96,6.70075,6.70075,0,0,1,.79883,1,2.60326,2.60326,0,0,1,.40039,1.47949,2.74491,2.74491,0,0,1-.08008.88086,7.42307,7.42307,0,0,0-2.48046-1.36035,7.88349,7.88349,0,0,0-2.39844-.48047q-.40137,0-1.52149.12012-1.11914.1201-2.32031.36035a12.754,12.754,0,0,0-2.11914.59961q-.91992.36034-.91992.83984l.08008-.0791q-.48048,1.04-.96,2.2793-.48048,1.24218-.96,2.36035l-1.2002,3.36035q-1.99951,5.2793-4.36035,10.96a62.675,62.675,0,0,1-5.39942,10.31934q-1.12061,1.68016-2.60058,3.64062a30.70066,30.70066,0,0,1-3.2793,3.67969,20.1098,20.1098,0,0,1-3.80078,2.87988,8.184,8.184,0,0,1-4.16016,1.16016A15.10067,15.10067,0,0,1,1002.56152,608a1.67036,1.67036,0,0,1-1.15918-.55957,8.34256,8.34256,0,0,1,1.08008-.52051q.6797-.28125,1.0791-.43945-.15966.15821.24024-.04a6.149,6.149,0,0,0,.63965-.36035q.64159-.40137,1.16015-.67969.52149-.28125.91992-.52051a12.58521,12.58521,0,0,0,1.67969-1.63965q1.12207-1.24218,2.24024-2.7207,1.12206-1.481,2-2.87988a7.76734,7.76734,0,0,0,1.041-2.12012v.08008q1.04-1.84131,2.15918-4,1.1206-2.15918,2.12012-4.39941.999-2.23975,1.91992-4.48047.91992-2.23829,1.64063-4.23926l1.91992-5.04v.0791q.39843-1.03857.8789-2.23926a19.53541,19.53541,0,0,0,.88086-3.04l-.7207.16016a5.67771,5.67771,0,0,1-1.08008.23926,11.3882,11.3882,0,0,1-1.47949.08008,1.33648,1.33648,0,0,1-1.28027-.79981A3.39072,3.39072,0,0,1,1020.041,566.40039Zm-4.87891,27.83984a19.4596,19.4596,0,0,0,2.55957-4.40039q1.43994-3.1201,2.83984-6.71972,1.39893-3.60059,2.63965-7,1.23926-3.3999,1.96094-5.24024a9.08411,9.08411,0,0,0,.55957-1.28027,5.11886,5.11886,0,0,0,.39941-1.35938l-.15918.16016a4.1277,4.1277,0,0,1-.24023.67969q-.24024.60059-.55957,1.28027c-.21484.45313-.40039.87988-.56055,1.2793a4.15574,4.15574,0,0,0-.24023.68066q-2.08008,5.2793-4.08008,10.67969a77.61283,77.61283,0,0,1-4.71973,10.36035,1.50452,1.50452,0,0,0-.28027.39942A1.06456,1.06456,0,0,0,1015.16211,594.24023Zm0,2.16016q.48047-.7207.75977-1.12012c.1875-.26757.35937-.53418.51953-.7998a3.37855,3.37855,0,0,1,.32031-.48047q.7998-1.28028,1.96-3.63965,1.15869-2.36133,2.31934-4.87988,1.16014-2.521,2.041-4.88086a22.81294,22.81294,0,0,0,1.11914-3.71973,2.58412,2.58412,0,0,0-.27929.44043,6.478,6.478,0,0,0-.36036.75977c-.10742.26758-.21386.5332-.31933.7998a2.21336,2.21336,0,0,0-.16016.48047q-1.52051,3.83935-3.16015,7.71973a67.077,67.077,0,0,1-3.72071,7.47949,6.01472,6.01472,0,0,0-.59961.9209A3.28565,3.28565,0,0,0,1015.16211,596.40039Zm4.24023-3.20019a7.99427,7.99427,0,0,0,.71875-1.24024q.55958-1.0796,1.16016-2.32031t1.08008-2.35938A7.10934,7.10934,0,0,0,1022.8418,586q-1.04,2.16064-1.64063,3.44043-.59912,1.27881-1.16015,2.39941Q1019.48144,592.959,1019.40234,593.2002Zm9.19922-30.87989a67.5091,67.5091,0,0,1,5.48047-10.44043,117.29348,117.29348,0,0,1,6.91992-9.55957,5.48453,5.48453,0,0,1,.35938-.48047,3.01079,3.01079,0,0,0,.36133-.56054,42.48268,42.48268,0,0,0-3.36133,3.88086q-1.83984,2.36133-3.59961,5-1.76075,2.63964-3.24024,5.24023A30.327,30.327,0,0,0,1029.32227,560q-.082.16113-.40039,1.08008a6.03788,6.03788,0,0,0-.32032,1.08008Zm3.75977-5.52051.16015-.16015a8.44753,8.44753,0,0,0,.67969-1.12012,8.41977,8.41977,0,0,1,.67969-1.11914q1.28028-2.23829,2.48047-3.96094,1.20117-1.71825,2.36133-3.27929,1.15722-1.56006,2.43945-3.16016,1.27734-1.59962,2.87891-3.52a5.78556,5.78556,0,0,0-1.43946,1.31982q-1.04,1.16163-2.35937,2.79981-1.32129,1.64063-2.72071,3.60059-1.40039,1.96141-2.56054,3.71972-1.16016,1.76074-1.91992,3.08008a4.79854,4.79854,0,0,0-.75977,1.7998Zm10.08008-12.0791c-.05274,0-.13282.05274-.24024.15918,0,.05371-.01367.08008-.03906.08008-.02734,0-.041.02734-.041.08008a.3312.3312,0,0,0,.20118-.12012l.19921-.19922Zm.56054-.64062a.43406.43406,0,0,0-.32031.19922,2.052,2.052,0,0,0-.24023.36133,4.61337,4.61337,0,0,1,.64062-.56055Zm1.59961,7.2793c.10547-.15918.22657-.332.35938-.51954a4.56181,4.56181,0,0,0,.36133-.59961c.32031-.5332.6914-1.14648,1.11914-1.83984a21.28227,21.28227,0,0,0,1.16015-2.16016q.51856-1.11914.91992-2.24023a6.23559,6.23559,0,0,0,.4004-2.08008v-.16015a.37382.37382,0,0,0-.19922.28027,1.56115,1.56115,0,0,1-.1211.36035q-.6416,1.83984-1.32031,3.55957a22.57337,22.57337,0,0,1-1.63867,3.31934q-.16113.24022-.64063,1.08008a3.04065,3.04065,0,0,0-.48047,1.16015Zm1.59961-.15918q1.04-1.44,2.1211-3.04a7.19674,7.19674,0,0,0,1.24023-3.43946q-.082,0-.48047.79883c-.26758.53418-.42773.85352-.48047.96094q-.55956,1.12061-1.27929,2.31933A12.15754,12.15754,0,0,0,1046.20117,551.2002Zm3.52149-1.28028.1582-.16015a3.22481,3.22481,0,0,0,.32031-.51954q.24024-.43944.48047-.91992t.43945-.91992a1.8695,1.8695,0,0,0,.20118-.60059v-.15917c-.05469,0-.1875.21289-.40039.63867q-.32228.64159-.4004.80078c-.05273.10742-.1875.38672-.40039.83984a3.206,3.206,0,0,0-.32031.83985C1049.80078,549.86719,1049.77344,549.91992,1049.72266,549.91992Z" transform="translate(-657.5 -178.5)"/>
      <path d="M1052.68066,559.04a1.41562,1.41562,0,0,1,.63965-.16016h.71973a6.94177,6.94177,0,0,1,2.40039.44043,5.6713,5.6713,0,0,1,2.08008,1.31934,5.15976,5.15976,0,0,1,1.28027,3.52051,9.9239,9.9239,0,0,1-2.16015,5.04,33.572,33.572,0,0,1-2.48047,3.16015A28.3978,28.3978,0,0,1,1053,574.63965a18.54488,18.54488,0,0,1-1.87988,1.20019,25.49918,25.49918,0,0,1-2.51953,1.2002,11.59152,11.59152,0,0,1-1.24024.40039,7.15506,7.15506,0,0,1-1.32031.0791,11.5194,11.5194,0,0,1-1.2002-.03906,2.91647,2.91647,0,0,1-.71972-.2002,1.92622,1.92622,0,0,0-.63965-.24023,8.63833,8.63833,0,0,1-.56055,1.44043,4.604,4.604,0,0,0-.43945,1.31933q-.041.44092-.12012,1.32032a4.85887,4.85887,0,0,0,.24024,2.12011,2.31332,2.31332,0,0,0,1.04,1.16016,4.27032,4.27032,0,0,0,1.71972.23926,7.28534,7.28534,0,0,0,2.04-.23926,11.45665,11.45665,0,0,0,2.28027-1,26.64932,26.64932,0,0,0,2.43946-1.48047,11.26874,11.26874,0,0,1,2.20019-1.32031,1.06815,1.06815,0,0,1,1.08008.20019q.3999.48048-.63965,1.44043a13.23849,13.23849,0,0,1-3.56054,2.24024,19.36257,19.36257,0,0,1-4.36036,1.43945,11.69751,11.69751,0,0,1-2.31933.12012,5.98953,5.98953,0,0,1-2.16016-.36035,8.386,8.386,0,0,1-2.55957-1.43946,3.17528,3.17528,0,0,1-1.20019-1.75976,9.85279,9.85279,0,0,1-.48047-3.36035,13.50922,13.50922,0,0,1,.7998-3.60059q.16113-.479.32031-.83984a1.77916,1.77916,0,0,0,.16016-.43946,3.03874,3.03874,0,0,1,.24024-.60058q.24022-.51855.5996-1.15918.36036-.64014.79981-1.36035.43945-.72071.76074-1.2002.5581-.87891,1.23926-1.7998.67968-.91847,1.32031-1.79981a4.65,4.65,0,0,0,.40039-.48047q.23877-.31786.55957-.71972a13.23905,13.23905,0,0,1,1.04-1.12012l1.67969-1.67969A32.49127,32.49127,0,0,1,1050.68066,560,5.3047,5.3047,0,0,1,1052.68066,559.04Zm-3.04,3.20019q.71923-.96093-1.52051,1.2793a38.17226,38.17226,0,0,0-6.55957,8.56055,14.60512,14.60512,0,0,0-1.40039,2.71972q-.52149,1.36085-.91993,2.71973-.15966.80127-.28027,1.56055c-.08008.50781-.0918.707-.04.59961a.8428.8428,0,0,0,.16016-.31934.886.886,0,0,0,.08008-.40039,1.51948,1.51948,0,0,1,.08007-.47949,23.70086,23.70086,0,0,1,3.16016-7.32031,42.8547,42.8547,0,0,1,5.87988-7.48047c.26661-.31934.53223-.61231.79981-.87989Q1049.48,562.40137,1049.64063,562.24023Zm.55957,1.2793q1.43994-1.51758,1.08007-1.23926-.36034.28125-2.04,1.87989a36.85173,36.85173,0,0,0-5.47949,6.51953,25.90944,25.90944,0,0,0-3.24023,6.68066,4.94066,4.94066,0,0,0-.32031,1.15918q.0791-.11865.71972-1.55957a19.41437,19.41437,0,0,1,1.16016-2.71973q.60058-1.11914,1.48047-2.56054a40.08338,40.08338,0,0,1,2.96-4.16016A43.07447,43.07447,0,0,1,1050.2002,563.51953Zm-7.59961,14a4.83959,4.83959,0,0,0,.23925-1.03906c-.05371-.05274-.10742-.0127-.15918.11914a7.67993,7.67993,0,0,0-.24023.91992q-.40137.88184-.32031.88086Q1042.19921,578.40039,1042.60059,577.51953Zm8.55957-12.39941c0-.05274-.04-.04-.12012.04s-.333.30761-.75977.67968a36.24177,36.24177,0,0,0-6.40039,8.48047Q1043.23976,575.52,1043,575.96q-.24024.44092,0,.36035a3.2043,3.2043,0,0,0,.32031-.52051c.16016-.292.37207-.65234.63965-1.08007q1.35938-2.39941,2.7207-4.35938a32.58,32.58,0,0,1,3.2793-3.96l.84082-.84082Q1051.15967,565.20068,1051.16016,565.12012Zm4.32031-2.48047c0-.21192-.02734-.31934-.08008-.31934a3.107,3.107,0,0,0-.67969.51953q-.60058.52149-1.40039,1.28028-.80127.76171-1.63965,1.59961l-1.48046,1.48047q-1.52052,1.68016-3.2002,3.91992a29.49015,29.49015,0,0,0-2.47949,3.75976l-.40039.96h.56054q.23877-.07909.71973-.24023a7.14567,7.14567,0,0,0,.96-.39941,5.41857,5.41857,0,0,0,.67969-.32032,3.72949,3.72949,0,0,0,.56055-.39941q.27831-.24024.71972-.64063.43945-.39843,1.08008-1.04.95948-.87889,1.59961-1.55957a14.08036,14.08036,0,0,0,1.16016-1.40039,17.49381,17.49381,0,0,0,1-1.55957q.48047-.84081,1.12011-2.12011a3.98865,3.98865,0,0,0,.36036-.79981q.19774-.55958.39941-1.08008a8.77642,8.77642,0,0,0,.32031-1A3.35748,3.35748,0,0,0,1055.48047,562.63965Zm.39941,2.64062c.16016-.5332.21289-.8125.16016-.83984-.05371-.02637-.1875.19922-.39941.67969q-.16115.32079-.44043,1a8.98252,8.98252,0,0,1-.67969,1.32031l-.56055,1.11914-.23926.48047c0-.05274.15918-.24024.4795-.55957q.3999-.64014.91992-1.60059A13.23274,13.23274,0,0,0,1055.87988,565.28027Zm.80078.55957q-.08056,0-.28027.36036-.20069.36035-.52051.91992a8.19545,8.19545,0,0,1-.55957,1.08008c-.21386.34765-.374.5996-.48047.75976l-.31933.55957.31933-.31933a6.68353,6.68353,0,0,0,.9209-1.28028,13.43831,13.43831,0,0,0,.75977-1.43945Zm-.56054-1.75976c.10644-.10645.10644-.16016,0-.16016,0-.05273-.01367-.0664-.04-.04a.31424.31424,0,0,0-.04.2002C1056.09277,564.13379,1056.12012,564.13379,1056.12012,564.08008Zm1.60058,3.83984a.74771.74771,0,0,0,.08008-.20019.69708.69708,0,0,1,.0791-.2002.61722.61722,0,0,1,.08008-.23926c0-.05273-.05371,0-.15918.16016a3.39737,3.39737,0,0,0-.32031.63965q-.40137.7998-.28027.71972A3.59851,3.59851,0,0,0,1057.7207,567.91992Z" transform="translate(-657.5 -178.5)"/>
    </g>
    <g>
      <path d="M939.02051,604.36621a2.46072,2.46072,0,0,1,.96-.32031,4.34076,4.34076,0,0,1,.48.04q.3186.041.71973.12011a3.92571,3.92571,0,0,1,1.64013.63965,7.36516,7.36516,0,0,1,1.3999,1.36035,7.09184,7.09184,0,0,1,1.52,5.12012c-.05371.373-.10742.74707-.15966,1.11914a12.14849,12.14849,0,0,1-.24024,1.2002,13.10893,13.10893,0,0,1-1.20019,3.12012,9.72657,9.72657,0,0,1-2.07959,2.48046,8.58849,8.58849,0,0,1-1.56006,1.23926,3.64009,3.64009,0,0,1-1.96.52051,2.47562,2.47562,0,0,1-1.36035-.48047.87277.87277,0,0,1-.31983-.55957,3.12256,3.12256,0,0,1,.64014-1.12012,9.85414,9.85414,0,0,0,1.43994-2.47949,34.784,34.784,0,0,0,1.19971-3.36035q.15966-.7207.32031-1.83984a14.39646,14.39646,0,0,0,.15967-2q.15966-1.35937-.07959-1.36036a3.436,3.436,0,0,0-1.36035.83985q-1.04.84081-2.35987,2.12012-1.31982,1.28026-2.68017,2.75976-1.36085,1.48242-2.39991,2.76074a43.52511,43.52511,0,0,0-5.52,8.71973,21.55817,21.55817,0,0,0-2.31982,8c0,.42773.02637.91992.08008,1.47949a6.83111,6.83111,0,0,0,.35986,1.64063,5.99758,5.99758,0,0,0,.72022,1.43945,2.21951,2.21951,0,0,0,1.15966.87988,2.75423,2.75423,0,0,0,.88038.16016,6.64283,6.64283,0,0,0,2.48-.59961,19.21077,19.21077,0,0,0,3.03955-1.63965,17.7407,17.7407,0,0,0,2.16015-1.64062q1.03859-.91846,2.56006-2.43946a35.04162,35.04162,0,0,0,2.35987-2.7207q.91918-1.1997,2.12011-3.04.39918-.63867.72022-1.08008a5.65065,5.65065,0,0,1,.48-.59961,1.41876,1.41876,0,0,1,.63965-.16015,2.38226,2.38226,0,0,1,1,.24023,1.67143,1.67143,0,0,1,.76025.63965v.64062a7.75208,7.75208,0,0,1-1.2002,3.43946q-.47973.72071-.87988,1.24023-.40137.52149-1.52,1.96a22.53784,22.53784,0,0,1-3.7998,3.83985,22.77813,22.77813,0,0,1-4.91992,2.7998,15.78806,15.78806,0,0,1-6.08008,1.52051,6.23722,6.23722,0,0,1-6-3.67969,8.22544,8.22544,0,0,1-.8003-2.7207,14.75574,14.75574,0,0,1-.08007-3.43945,7.83071,7.83071,0,0,1,.04-.79981q.03954-.3999.12011-.80078a10.306,10.306,0,0,1,.43994-1.96q.36036-1.15869.8003-2.35938.43872-1.20117.91992-2.36035a21.5099,21.5099,0,0,1,.96-2.04,19.77533,19.77533,0,0,1,1.04-1.7998q.6394-.999,1.27978-2.04.63941-1.03857,1.32032-1.96.67822-.91846,1.23974-1.56055a56.36909,56.36909,0,0,1,5.48-5.63965A23.90734,23.90734,0,0,1,939.02051,604.36621Zm-10.96,10.96q.23949-.3999.3999-.64062a2.55658,2.55658,0,0,1,.31982-.39942,3.96581,3.96581,0,0,0,.24024-.40039l-.16016.16016a.49753.49753,0,0,0-.12012.20019.79187.79187,0,0,1-.1997.2793q-.48048.561-1.16016,1.48047-.68042.91992-1.35986,1.96-.68115,1.04-1.28028,2.08008a19.39129,19.39129,0,0,0-.91992,1.75976q-.64086,1.36085-1.23974,2.91993-.60059,1.56006-1,2.68066c-.0542.2666-.12012.55957-.2002.87988a4.24669,4.24669,0,0,0-.12012.55957q.15967,0,.56006-1.43945a35.27753,35.27753,0,0,1,2.52-6.08008A53.35844,53.35844,0,0,1,928.06055,615.32617Zm6.48-5.60058a1.72065,1.72065,0,0,0,.31982-.39942c-.05371,0-.24023.17383-.56006.51953a11.7505,11.7505,0,0,1-1.27978,1.16016,47.90261,47.90261,0,0,0-5.64014,6.67969,33.87756,33.87756,0,0,0-3.72021,7.08008q-.80055,1.8413-.63965,1.83984-.08056,0,.56006-.96a38.1884,38.1884,0,0,1,2.75976-5.63965,44.61793,44.61793,0,0,1,3.64014-5.16016,10.91,10.91,0,0,0,.7998-1.04,7.63319,7.63319,0,0,1,.72022-.91992q.39917-.438.91992-.96.51929-.52,1.23975-1.32031Zm-7.2002,11.5205.31983-.48046a.2328.2328,0,0,1-.07959.16015.64634.64634,0,0,1-.16016.12012.43271.43271,0,0,0-.16016.20019,1.39594,1.39594,0,0,0-.15966.39942.2292.2292,0,0,0-.08008.16015Q927.17944,621.80566,927.34033,621.24609Zm1.91992-2.96a1.72624,1.72624,0,0,0,.32032-.40039.94651.94651,0,0,0,.15966-.24023l-.56005.56054a4.48486,4.48486,0,0,0-.43995.67969c-.02734.08008-.01367.12012.04.12012.05274,0,.10645-.05273.16016-.16016a.52248.52248,0,0,0,.12012-.24023A.70178.70178,0,0,1,929.26025,618.28613Zm2-6.7207c0-.10547-.05371-.0918-.15966.04-.10791.13379-.13379.20019-.08008.20019l.15967-.16015A.0713.0713,0,0,1,931.26025,611.56543Zm10.39991-.63965c0-.21289-.02735-.32031-.07959-.32031a.14124.14124,0,0,0-.16016.16016,5.0214,5.0214,0,0,1-.08008.64062q-.08056.479-.20019,1.0791-.11938.60059-.27979,1.2002c-.10742.40039-.1875.708-.24023.91992a3.2669,3.2669,0,0,0-.15967.56055.70874.70874,0,0,0-.08008.31933c.05225.05371.146-.10547.27979-.47949q.19921-.55957.40039-1.32031.19848-.75879.3999-1.55957A5.5115,5.5115,0,0,0,941.66016,610.92578Zm.80029,2.71973a1.3485,1.3485,0,0,0,.15967-.59961v-.44043c-.05371-.16016-.07959-.22559-.07959-.19922a1.96,1.96,0,0,1-.16016.35938q-.24024.88184-.52,1.75976-.28125.88184-.20019.96c.10644.05371.24023-.13183.40039-.55957A11.89626,11.89626,0,0,0,942.46045,613.64551Zm1.75976.7998a.32289.32289,0,0,0,.08008-.23926v-.64062c-.10742,0-.16015.2002-.16015.60059v.59961a.16243.16243,0,0,1,.04-.12012A.31515.31515,0,0,0,944.22021,614.44531Z" transform="translate(-657.5 -178.5)"/>
      <path d="M956.54,623.08594q.63941-.72071,2-2.24024,1.35938-1.519,2.91992-3.08007A30.85171,30.85171,0,0,1,964.54,615.0459a4.56762,4.56762,0,0,1,2.47949-1.16016,12.36823,12.36823,0,0,1,1.56055.12012.92438.92438,0,0,1,.91992,1,3.86538,3.86538,0,0,1-.48047,1.7998q-.479.92139-1,1.79981-.52148.88184-1,1.7207a3.1843,3.1843,0,0,0-.47949,1.55957,1.24485,1.24485,0,0,0,.28027.96,1.15518,1.15518,0,0,0,.63965.28028c.24024.02734.47949.05371.71973.08007q.36034.041.44043.2793a5.748,5.748,0,0,1-.87989,1,1.73773,1.73773,0,0,1-1.20019.52051,5.51818,5.51818,0,0,1-2.2002-.32031,2.15833,2.15833,0,0,1-1-.87989,6.692,6.692,0,0,1-.55957-1.32031,8.824,8.824,0,0,0-.7998-1.71972q-3.84082,4.40039-7.64063,9.24023A55.77059,55.77059,0,0,0,947.98,640.126a2.4074,2.4074,0,0,1-.3999.67968.80185.80185,0,0,1-.64014.28028,2.84245,2.84245,0,0,1-1.27978-.32031,8.76364,8.76364,0,0,1-1.2002-.71973l-.08008-.79981a13.52122,13.52122,0,0,1,1.40039-5.48046q1.39819-3.07911,3.07959-6.39942,1.68018-3.31934,3.08008-6.52051a14.73892,14.73892,0,0,0,1.3999-5.83984,2.81587,2.81587,0,0,1,.12012-1.04q.12012-.24024,1.08008-.24023a1.87062,1.87062,0,0,1,1.31982.48046,3.59111,3.59111,0,0,1,.84034,1.2002,5.93611,5.93611,0,0,1,.43994,1.47949,8.633,8.633,0,0,1,.12011,1.32031,10.08081,10.08081,0,0,1-.32031,2.51954q-.32007,1.24218-.71973,2.36035Zm-3.12012-3.2002a8.17821,8.17821,0,0,0,.40039-1.83984c-.0542-.10645-.09375-.13281-.12011-.08008-.02784.05371-.09375.24023-.2002.55957q-.24024.80127-.56006,1.7207-.32007.91994-.7998,2.08008T950.98,625.00586q-.68041,1.52051-1.64014,3.59961-.8811,1.84131-1.48,3.12012-.59985,1.28027-1,2.12011-.40064.84083-.59961,1.28028a7.34483,7.34483,0,0,0-.28027.67968q-.23951.80127-.48,1.63965c-.16016.56055-.2124.84082-.16016.84082q.0813.08056.24024-.64062.15966-.479.3999-1.08008.24024-.59911.64014-1.51953.39916-.91846,1.04-2.28027.6394-1.35937,1.60009-3.35938,1.11915-2.3203,1.79981-3.84082.679-1.51758,1.12012-2.51953.43872-.999.71972-1.71973Q953.17969,620.60546,953.41992,619.88574Zm.40039,2.32031a7.27839,7.27839,0,0,0,.31983-1.24023q0-.19922-.39991.67969-.48046,1.1997-1.48,3.36035-1.00122,2.15918-2.68017,5.67969-.8811,1.9204-1.56006,3.32031a15.99319,15.99319,0,0,0-.68018,1.47949q.07911.1626.72022-1,.6394-1.15869,2.16015-4.19922,1.67944-3.52,2.44-5.24023Q953.41967,623.32616,953.82031,622.20605Zm1.11963,2c.2124-.48046.29248-.74609.24024-.7998l-.16016.31934c-.05371.10742-.10742.22754-.16016.36035-.05371.13379-.10742.28027-.15966.43945q-.561,1.12207-.64014,1.32031c-.05371.13379-.02735.17383.08008.12012A5.32,5.32,0,0,0,954.93994,624.20605Zm8.3999-4.24023a3.376,3.376,0,0,0,.16016-.55957q-.08056-.15967-.19922.11914a1.33417,1.33417,0,0,0-.12109.52051C963.17969,620.20605,963.23242,620.17969,963.33984,619.96582Zm1.83985-1.28027a6.52076,6.52076,0,0,0,.56054-1.2002q.07911-.31786-.32031.08008a5.70376,5.70376,0,0,0-.56054,1.04,5.84928,5.84928,0,0,0-.39942,1.12012c-.10742.32031-.08008.38769.08008.20019A5.44325,5.44325,0,0,0,965.17969,618.68555Zm1.91992.16015a7.21467,7.21467,0,0,0,.80078-1.67968,4.24856,4.24856,0,0,1-.24023.39941,7.78467,7.78467,0,0,0-.48047.80078q-.64161,1.1206-.83985,1.51953c-.13281.26758-.17382.42774-.11914.48047a3.53818,3.53818,0,0,1,.23926-.40039A10.55617,10.55617,0,0,0,967.09961,618.8457Z" transform="translate(-657.5 -178.5)"/>
      <path d="M980.85938,613.96582a1.41568,1.41568,0,0,1,.63964-.16016h.71973a6.942,6.942,0,0,1,2.40039.44043,5.67122,5.67122,0,0,1,2.08008,1.31934,5.15393,5.15393,0,0,1,1.2793,3.52051,9.907,9.907,0,0,1-2.16016,5.04,33.39205,33.39205,0,0,1-2.47949,3.16015,28.61289,28.61289,0,0,1-2.15918,2.2793,18.67216,18.67216,0,0,1-1.88086,1.2002,25.71691,25.71691,0,0,1-2.51953,1.20019,11.59152,11.59152,0,0,1-1.24024.40039,7.155,7.155,0,0,1-1.32031.0791,11.47136,11.47136,0,0,1-1.19922-.03906,2.89993,2.89993,0,0,1-.7207-.2002,1.93363,1.93363,0,0,0-.63965-.24023,8.68245,8.68245,0,0,1-.55957,1.44043,4.614,4.614,0,0,0-.44043,1.31934c-.02832.29394-.06738.73437-.12012,1.32031a4.85891,4.85891,0,0,0,.24024,2.12012,2.3203,2.3203,0,0,0,1.03906,1.16015,4.276,4.276,0,0,0,1.7207.23926,7.28534,7.28534,0,0,0,2.04-.23926,11.432,11.432,0,0,0,2.28028-1,26.78133,26.78133,0,0,0,2.43945-1.48047,11.29825,11.29825,0,0,1,2.20019-1.32031,1.06853,1.06853,0,0,1,1.08008.2002c.2666.32031.05176.7998-.63965,1.44043a13.23858,13.23858,0,0,1-3.56054,2.24023,19.37149,19.37149,0,0,1-4.35938,1.43945,11.71286,11.71286,0,0,1-2.32031.12012,5.99352,5.99352,0,0,1-2.16016-.36035,8.40331,8.40331,0,0,1-2.56054-1.43945,3.18325,3.18325,0,0,1-1.19922-1.75977,9.85279,9.85279,0,0,1-.48047-3.36035,13.47718,13.47718,0,0,1,.80078-3.60059c.10742-.31933.21289-.59961.31934-.83984a1.77953,1.77953,0,0,0,.16015-.43945,3.07039,3.07039,0,0,1,.23926-.60059q.24024-.51855.60059-1.15918.36035-.64014.7998-1.36035.43945-.7207.75977-1.2002.55956-.87889,1.24023-1.7998.6797-.91846,1.32031-1.79981a4.65073,4.65073,0,0,0,.40039-.48046c.16016-.21192.34571-.45215.55957-.71973a13.41462,13.41462,0,0,1,1.04-1.12012q.79835-.79835,1.67969-1.67969a32.48933,32.48933,0,0,1,2.64063-2.32031A5.30456,5.30456,0,0,1,980.85938,613.96582Zm-3.041,3.2002q.7207-.96094-1.51953,1.27929a38.1155,38.1155,0,0,0-6.55957,8.56055,14.6055,14.6055,0,0,0-1.40039,2.71973q-.52,1.36083-.91992,2.71972-.15967.80127-.28028,1.56055c-.08008.50781-.09179.707-.03906.59961a.84454.84454,0,0,0,.15918-.31934.886.886,0,0,0,.08008-.40039,1.54758,1.54758,0,0,1,.08008-.47949,23.67743,23.67743,0,0,1,3.16015-7.32031,42.85508,42.85508,0,0,1,5.87988-7.48047c.26563-.31934.53321-.61231.79981-.87988C977.52539,617.46,977.71094,617.27344,977.81836,617.166Zm.56055,1.27929q1.43994-1.51758,1.08007-1.23926-.36034.28125-2.04,1.87989a36.85137,36.85137,0,0,0-5.4795,6.51953,25.90976,25.90976,0,0,0-3.24023,6.68066,4.94144,4.94144,0,0,0-.32031,1.15918q.07909-.11865.7207-1.55957a19.30615,19.30615,0,0,1,1.15918-2.71972q.60059-1.11915,1.48047-2.56055a40.08338,40.08338,0,0,1,2.96-4.16016A42.94058,42.94058,0,0,1,978.37891,618.44531Zm-7.59961,14a4.86539,4.86539,0,0,0,.24023-1.03906c-.05469-.05273-.10742-.0127-.16015.11914a7.30068,7.30068,0,0,0-.24024.91992q-.40137.88184-.32031.88086Q970.37793,633.32617,970.7793,632.44531Zm8.55957-12.39941c0-.05274-.04-.04-.12012.04s-.334.30761-.75977.67969a37.62821,37.62821,0,0,0-3.5996,4.12011,38.045,38.045,0,0,0-2.80079,4.36035q-.64159,1.19971-.8789,1.63965-.24024.44092,0,.36035a3.30863,3.30863,0,0,0,.31933-.5205c.16016-.292.37207-.65235.63965-1.08008q1.35938-2.39941,2.72071-4.35938a32.58078,32.58078,0,0,1,3.27929-3.96q.48046-.48047.83985-.84082Q979.33887,620.12646,979.33887,620.0459Zm4.32031-2.48047c0-.21191-.02832-.31934-.08008-.31934a3.12379,3.12379,0,0,0-.68066.51954q-.59913.52148-1.39942,1.28027-.80127.76172-1.63964,1.59961-.84083.84081-1.48047,1.48047-1.52052,1.68016-3.19922,3.91992a29.40876,29.40876,0,0,0-2.48047,3.75976l-.40039.96h.56055c.16015-.05274.39941-.13282.71972-.24024a7.19852,7.19852,0,0,0,.96-.39941,5.48319,5.48319,0,0,0,.67969-.32032,3.72949,3.72949,0,0,0,.56055-.39941q.27831-.24024.71972-.64062.438-.39844,1.08008-1.04.95947-.87891,1.60059-1.55957a14.07079,14.07079,0,0,0,1.15918-1.40039,17.2766,17.2766,0,0,0,1-1.55958q.48046-.84081,1.12011-2.12011a3.94241,3.94241,0,0,0,.35938-.79981c.13281-.373.26758-.73242.40039-1.08008a8.77579,8.77579,0,0,0,.32031-1A3.35748,3.35748,0,0,0,983.65918,617.56543Zm.39941,2.64062c.16016-.5332.21289-.8125.16016-.83984-.05371-.02637-.1875.19922-.40039.67969-.10742.21387-.25293.54785-.43945,1a8.98252,8.98252,0,0,1-.67969,1.32031l-.56055,1.11914-.24023.48047c0-.05273.16015-.24023.48047-.55957q.3999-.64014.91992-1.60059A13.38249,13.38249,0,0,0,984.05859,620.20605Zm.80079.55958q-.082,0-.28028.36035-.20069.36035-.52051.91992a8.43593,8.43593,0,0,1-.55957,1.08008c-.21386.34765-.374.59961-.47949.75976l-.32031.55957.32031-.31933a6.72986,6.72986,0,0,0,.91992-1.28028,13.43736,13.43736,0,0,0,.75977-1.43945Zm-.56055-1.75977c.10644-.10645.10644-.16016,0-.16016,0-.05273-.01367-.0664-.04-.04a.31431.31431,0,0,0-.04.2002C984.27148,619.05957,984.29883,619.05957,984.29883,619.00586Zm1.59961,3.83984a.71309.71309,0,0,0,.08008-.20019.7492.7492,0,0,1,.08007-.2002.63482.63482,0,0,1,.08008-.23926c0-.05273-.05273,0-.16015.16016a3.46139,3.46139,0,0,0-.31934.63965q-.40137.7998-.28027.71973A3.61288,3.61288,0,0,0,985.89844,622.8457Z" transform="translate(-657.5 -178.5)"/>
      <path d="M1018.46289,613.96582a4.727,4.727,0,0,1,1.54688-.32031,1.70506,1.70506,0,0,1,1.0166.40039,4.57736,4.57736,0,0,1,.93652.96,5.2211,5.2211,0,0,1,.65137,1.20019,3.22721,3.22721,0,0,1,.24414,1.12012,10.00866,10.00866,0,0,1-.92188,3.51953,41.61882,41.61882,0,0,1-2.44531,4.87989q-1.5249,2.63964-3.44726,5.36035a55.44245,55.44245,0,0,1-3.88868,4.91992,27.42954,27.42954,0,0,1-3.80859,3.59961,5.64425,5.64425,0,0,1-3.207,1.40039,5.38946,5.38946,0,0,1-2.56543-.52051,3.74515,3.74515,0,0,1-1.4834-1.39941,5.39312,5.39312,0,0,1-.68164-2,16.87845,16.87845,0,0,1-.16016-2.40039,9.85235,9.85235,0,0,1,.32129-2.39942l-.08008.08008a1.1143,1.1143,0,0,1,.08008-.48047,3.97651,3.97651,0,0,0-.96289.91992q-.6416.76173-1.52246,1.63965-.96387.96095-2.085,2.08008-1.12353,1.12207-2.20508,2.08008a12.23585,12.23585,0,0,1-2.165,1.56055,4.03764,4.03764,0,0,1-1.88379.59961,3.13043,3.13043,0,0,1-2.64648-.96,4.61612,4.61612,0,0,1-.7207-2.7998,14.69661,14.69661,0,0,1,1.24023-5.67969q1.23925-2.959,2.59961-5.76074,1.11913-2.31885,2-4.43945a10.55082,10.55082,0,0,0,.87988-4.04,4.69334,4.69334,0,0,0-.04-.75977,1.502,1.502,0,0,0-.12011-.36035,1.7925,1.7925,0,0,1-.08008-1.16016q.15966-.438,1.52051-.43945a2.74513,2.74513,0,0,1,2.32031,1.19922,4.26061,4.26061,0,0,1,.87988,2.56055,11.0313,11.0313,0,0,1-1.0293,4.47949q-1.02831,2.32178-2.373,4.80078-1.4253,2.72022-2.65137,5.51953a13.86445,13.86445,0,0,0-1.22656,5.59961,20.4721,20.4721,0,0,0,2.749-2.19922q1.71387-1.56006,3.50586-3.40039,1.793-1.83984,3.38672-3.59961,1.59375-1.75928,2.38965-2.7207l1.67383-4.08008c.10449-.26562.22461-.626.35742-1.08008q.19922-.67822.43847-1.55957.23877-.95948.51758-1.91992.27832-.95947.55762-1.7998a6.71811,6.71811,0,0,1,.59863-1.36036c.21289-.3457.42481-.51953.6377-.51953a2.5544,2.5544,0,0,1,2.07129,1.15918,3.89194,3.89194,0,0,1,.876,2.36035,13.12924,13.12924,0,0,1-.91992,4.87989q-.91992,2.32177-2.04,4.64062-1.12061,2.32032-2.04,4.59961a12.39944,12.39944,0,0,0-.91992,4.67969v1.20019c0,.58789.13281.9336.40039,1.04a11.7112,11.7112,0,0,0,2.23926-2.12011,46.08013,46.08013,0,0,0,2.88086-3.71973q1.51758-2.16064,3.04-4.63965,1.51758-2.48,2.75976-4.84082a38.53182,38.53182,0,0,0,2-4.39941,9.97482,9.97482,0,0,0,.75977-3.24024v-1.04a3.33784,3.33784,0,0,1,.16211-.7998Zm-31.2041,23.67969q0-.95947-.08008-.96c-.05176,0-.08008.1875-.08008.56054a5.09784,5.09784,0,0,0,.08008.96Q987.33839,638.60742,987.25879,637.64551Zm.08008-1.43946c-.05371,0-.08008.05372-.08008.16016,0,.10742.01269.17285.04.19922.02637.02832.04-.01172.04-.12012Zm.87988.4795q.0791-1.19971-.04-.91992a8.73428,8.73428,0,0,0-.28027,1.64062v.31934a.2276.2276,0,0,0,.08008.16015q.15966.16113.16015-.16015v-.35938A3.54509,3.54509,0,0,1,988.21875,636.68555Zm5.83984-17.59961a4.388,4.388,0,0,0,.16016-.96q-.08056-.31934-.32031.47949c-.05371.21387-.12012.50781-.19922.87988a9.74352,9.74352,0,0,1-.28027,1.04l-.32032,1.12012a8.00968,8.00968,0,0,0,.48047-.96,6.97025,6.97025,0,0,0,.2793-.87989C993.93848,619.48535,994.00488,619.24609,994.05859,619.08594Zm.87989.7998a1.8549,1.8549,0,0,0,.08007-.87988q-.08056-.24024-.24023.40039c-.05371.15918-.14746.42676-.2793.7998q-.20069.55957-.36035,1.12012a2.00276,2.00276,0,0,0-.20019.55957,1.46382,1.46382,0,0,1-.12012.40039,1.29318,1.29318,0,0,0-.0791.39942,8.04212,8.04212,0,0,0,.59961-1.12012c.13281-.31934.25195-.63965.36035-.96Q994.85743,620.12646,994.93848,619.88574Zm1.28027,1.12012a.54985.54985,0,0,1,.04-.24023.55862.55862,0,0,0,.04-.24024.325.325,0,0,1,.08008-.23926c-.05371-.05273-.10743.02735-.16016.23926q-.08056.3208-.40039,1.36035c0,.10742.02637.10742.08008,0Q996.0581,621.48584,996.21875,621.00586Zm5.04,13.28027v-.08008c0-.05273-.01367-.0664-.04-.04a.31428.31428,0,0,0-.04.20019c.05274.10742.08008.13379.08008.0791Zm.63965-2.40039c.05273-.2666.10644-.50586.16015-.71972.05274-.21289.10645-.40039.16016-.56055.05273-.21192.10645-.39942.16016-.55957q-.08057-.07911-.28028.43945a9.79447,9.79447,0,0,0-.35937,1.16016c-.1084.42773-.21387.85449-.32031,1.28027a4.368,4.368,0,0,0-.16016.87988c.05273.10743.08008.13379.08008.08008a2.37457,2.37457,0,0,0,.24023-.67969Q1001.73731,632.60547,1001.89844,631.88574Zm2-2.71972a17.50645,17.50645,0,0,0,.56054-1.75977q.07911-.3999-.24023.23926a4.82542,4.82542,0,0,0-.40039.87988q-.23877.64161-.47949,1.36035-.24024.7207-.48047,1.40039c-.15918.45313-.26758.78711-.31934,1q-.32079,1.12061-.20019,1.08008.12012-.03956.43945-1.08008.15967-.55956.48047-1.48047C1003.47168,630.19336,1003.68457,629.64551,1003.89844,629.166Zm.48047,2.7998c0-.05273.01269-.08008.04-.08008.02636,0,.04-.02636.04-.08008v-.08007a.23155.23155,0,0,0-.16015.08007c-.05371.16016-.06738.25391-.04.28028Q1004.29835,632.127,1004.37891,631.96582Zm2.47949-14.71973c0-.32031-.02735-.48046-.08008-.48046-.10742,0-.15918.16015-.15918.48046q-.08056.55958-.52051,2.23926a26.70818,26.70818,0,0,1-.83984,2.7207q-.95947,2.39941-.16016.79981a17.99379,17.99379,0,0,0,1.08008-2.87988A21.32974,21.32974,0,0,0,1006.8584,617.24609Zm.7207,1.83985c.10547-.58594.12012-.83985.04-.75977a3.43318,3.43318,0,0,0-.36035,1c-.10742.31934-.22754.707-.36035,1.15918q-.20069.68115-.43946,1.36035-.24023.68115-.44043,1.2002c-.13378.34765-.22753.59961-.27929.75976a3.19287,3.19287,0,0,0-.16016.56055q.07764.16113.35938-.40039a13.90922,13.90922,0,0,0,.60058-1.44043q.31788-.87891.59961-1.83984Q1007.41847,619.72607,1007.5791,619.08594Zm.16016,4.96v-.32031l-.16016.16015Q1007.418,624.52735,1007.73926,624.0459Zm1.03906-3.04c.10645-.48047.13281-.71973.08008-.71973-.05371,0-.15918.26758-.31934.79981-.05371.26758-.12011.55957-.20019.87988a6.86063,6.86063,0,0,1-.28028.87988c-.16015.48047-.21386.71973-.16015.71973a3.399,3.399,0,0,0,.44043-1.04Q1008.61865,621.64648,1008.77832,621.00586Zm10.56055-3.04a1.98781,1.98781,0,0,0,.12011-.75977q-.041-.19921-.20019.2793a39.46682,39.46682,0,0,1-1.83984,4.88086q-.24024.55957-.12012.43945a7.06806,7.06806,0,0,0,.59961-1q.3999-.79833.84082-1.96A14.72355,14.72355,0,0,0,1019.33887,617.96582Zm.55957,1.75977q.31933-.87891.24023-.96a3.73028,3.73028,0,0,0-.39941.7998q-.40137.88184-.96094,2.08008-.55958,1.1997-.91992,2.08008c-.23926.58789-.333.87988-.2793.87988.05176,0,.18555-.19922.39942-.59961q.31934-.60059.7207-1.40039.39843-.79834.71973-1.63965Q1019.73682,620.12647,1019.89844,619.72559Zm.96,2.08007a8.647,8.647,0,0,0,.56055-1.43945.99113.99113,0,0,0-.24024.39942.713.713,0,0,0-.20019.40039,1.24437,1.24437,0,0,1-.2002.47949c-.47949.9082-.667,1.36035-.55957,1.36035a.81949.81949,0,0,1,.16016-.32031c.05273-.10645.12011-.24024.20019-.39942A4.35954,4.35954,0,0,1,1020.8584,621.80566Z" transform="translate(-657.5 -178.5)"/>
    </g>
  </g>
</svg>
